<svg width="142" height="32" viewBox="0 0 142 32" fill="none" xmlns="http://www.w3.org/2000/svg">
<path d="M42.623 20.0625V26H40.9629V11.7227H44.8789C46.6302 11.7227 47.9225 12.0579 48.7559 12.7285C49.5957 13.3991 50.0156 14.4082 50.0156 15.7559C50.0156 17.6439 49.0586 18.9199 47.1445 19.584L51.0215 26H49.0586L45.6016 20.0625H42.623ZM42.623 18.6367H44.8984C46.0703 18.6367 46.9297 18.4056 47.4766 17.9434C48.0234 17.4746 48.2969 16.7747 48.2969 15.8438C48.2969 14.8997 48.0169 14.2194 47.457 13.8027C46.9036 13.3861 46.0117 13.1777 44.7812 13.1777H42.623V18.6367ZM57.6035 26.1953C56.0215 26.1953 54.7715 25.7135 53.8535 24.75C52.9421 23.7865 52.4863 22.4486 52.4863 20.7363C52.4863 19.0111 52.9095 17.6406 53.7559 16.625C54.6087 15.6094 55.7513 15.1016 57.1836 15.1016C58.5247 15.1016 59.5859 15.5443 60.3672 16.4297C61.1484 17.3086 61.5391 18.4707 61.5391 19.916V20.9414H54.166C54.1986 22.1979 54.5143 23.1517 55.1133 23.8027C55.7188 24.4538 56.5684 24.7793 57.6621 24.7793C58.8145 24.7793 59.9538 24.5384 61.0801 24.0566V25.502C60.5072 25.7493 59.9635 25.9251 59.4492 26.0293C58.9414 26.14 58.3262 26.1953 57.6035 26.1953ZM57.1641 16.459C56.3047 16.459 55.6178 16.7389 55.1035 17.2988C54.5957 17.8587 54.2962 18.6335 54.2051 19.623H59.8008C59.8008 18.6009 59.5729 17.8197 59.1172 17.2793C58.6615 16.7324 58.0104 16.459 57.1641 16.459ZM71.6367 26V19.0762C71.6367 18.2038 71.4382 17.5527 71.041 17.123C70.6439 16.6934 70.0221 16.4785 69.1758 16.4785C68.0495 16.4785 67.2259 16.7845 66.7051 17.3965C66.1908 18.0085 65.9336 19.0111 65.9336 20.4043V26H64.3125V10.8047H65.9336V15.4043C65.9336 15.9577 65.9076 16.4167 65.8555 16.7812H65.9531C66.2721 16.2669 66.7246 15.8633 67.3105 15.5703C67.903 15.2708 68.5768 15.1211 69.332 15.1211C70.6406 15.1211 71.6204 15.4336 72.2715 16.0586C72.929 16.6771 73.2578 17.6634 73.2578 19.0176V26H71.6367ZM83.1797 26L82.8574 24.4766H82.7793C82.2454 25.1471 81.7116 25.6029 81.1777 25.8438C80.6504 26.0781 79.9896 26.1953 79.1953 26.1953C78.1341 26.1953 77.3008 25.9219 76.6953 25.375C76.0964 24.8281 75.7969 24.0501 75.7969 23.041C75.7969 20.8796 77.5254 19.7467 80.9824 19.6426L82.7988 19.584V18.9199C82.7988 18.0801 82.6165 17.4616 82.252 17.0645C81.8939 16.6608 81.3177 16.459 80.5234 16.459C79.6315 16.459 78.6224 16.7324 77.4961 17.2793L76.998 16.0391C77.5254 15.7526 78.1016 15.528 78.7266 15.3652C79.3581 15.2025 79.9896 15.1211 80.6211 15.1211C81.8971 15.1211 82.8411 15.4043 83.4531 15.9707C84.0716 16.5371 84.3809 17.4453 84.3809 18.6953V26H83.1797ZM79.5176 24.8574C80.5267 24.8574 81.3177 24.5807 81.8906 24.0273C82.4701 23.474 82.7598 22.6992 82.7598 21.7031V20.7363L81.1387 20.8047C79.8496 20.8503 78.9186 21.0521 78.3457 21.4102C77.7793 21.7617 77.4961 22.3118 77.4961 23.0605C77.4961 23.6465 77.6719 24.0924 78.0234 24.3984C78.3815 24.7044 78.8796 24.8574 79.5176 24.8574ZM92.7109 15.1211C94.1172 15.1211 95.2077 15.6029 95.9824 16.5664C96.7637 17.5234 97.1543 18.8809 97.1543 20.6387C97.1543 22.3965 96.7604 23.7637 95.9727 24.7402C95.1914 25.7103 94.1042 26.1953 92.7109 26.1953C92.0143 26.1953 91.3763 26.0684 90.7969 25.8145C90.224 25.554 89.7422 25.1569 89.3516 24.623H89.2344L88.8926 26H87.7305V10.8047H89.3516V14.4961C89.3516 15.3229 89.3255 16.0651 89.2734 16.7227H89.3516C90.1068 15.6549 91.2266 15.1211 92.7109 15.1211ZM92.4766 16.4785C91.3698 16.4785 90.5723 16.7975 90.084 17.4355C89.5957 18.0671 89.3516 19.1348 89.3516 20.6387C89.3516 22.1426 89.6022 23.2201 90.1035 23.8711C90.6048 24.5156 91.4089 24.8379 92.5156 24.8379C93.5117 24.8379 94.2539 24.4766 94.7422 23.7539C95.2305 23.0247 95.4746 21.9798 95.4746 20.6191C95.4746 19.2259 95.2305 18.1875 94.7422 17.5039C94.2539 16.8203 93.4987 16.4785 92.4766 16.4785ZM111.393 26H109.498L101.695 14.0176H101.617C101.721 15.4238 101.773 16.7129 101.773 17.8848V26H100.24V11.7227H102.115L109.898 23.6562H109.977C109.964 23.4805 109.934 22.9173 109.889 21.9668C109.843 21.0098 109.827 20.3262 109.84 19.916V11.7227H111.393V26ZM124.312 20.6387C124.312 22.3835 123.873 23.7474 122.994 24.7305C122.115 25.707 120.901 26.1953 119.352 26.1953C118.395 26.1953 117.545 25.9707 116.803 25.5215C116.061 25.0723 115.488 24.4277 115.084 23.5879C114.68 22.748 114.479 21.765 114.479 20.6387C114.479 18.8939 114.915 17.5365 115.787 16.5664C116.66 15.5898 117.87 15.1016 119.42 15.1016C120.917 15.1016 122.105 15.5996 122.984 16.5957C123.87 17.5918 124.312 18.9395 124.312 20.6387ZM116.158 20.6387C116.158 22.0059 116.432 23.0475 116.979 23.7637C117.525 24.4798 118.329 24.8379 119.391 24.8379C120.452 24.8379 121.256 24.4831 121.803 23.7734C122.356 23.0573 122.633 22.0124 122.633 20.6387C122.633 19.278 122.356 18.2461 121.803 17.543C121.256 16.8333 120.445 16.4785 119.371 16.4785C118.31 16.4785 117.509 16.8268 116.969 17.5234C116.428 18.2201 116.158 19.2585 116.158 20.6387ZM135.904 26L133.941 19.7207C133.818 19.3366 133.587 18.4642 133.248 17.1035H133.17C132.91 18.2428 132.682 19.1217 132.486 19.7402L130.465 26H128.59L125.67 15.2969H127.369C128.059 17.9857 128.583 20.0332 128.941 21.4395C129.306 22.8457 129.514 23.793 129.566 24.2812H129.645C129.716 23.9102 129.83 23.4316 129.986 22.8457C130.149 22.2533 130.289 21.7845 130.406 21.4395L132.369 15.2969H134.127L136.041 21.4395C136.406 22.5592 136.653 23.5 136.783 24.2617H136.861C136.887 24.0273 136.956 23.666 137.066 23.1777C137.184 22.6895 137.864 20.0625 139.107 15.2969H140.787L137.828 26H135.904Z" fill="black"/>
<path fill-rule="evenodd" clip-rule="evenodd" d="M20.5833 3.11111C20.5833 4.82223 18.9427 6.22223 16.9375 6.22223C14.9323 6.22223 13.2917 4.82223 13.2917 3.11111C13.2917 1.4 14.9323 0 16.9375 0C18.9427 0 20.5833 1.4 20.5833 3.11111ZM16.9375 7.77778C22.0964 7.77778 27.6745 7.31111 32.4323 6.22222L33.3438 9.33333C29.9531 10.1111 26.0521 10.6244 22.4062 10.8889V31.1111H18.7604V21.7778H15.1146V31.1111H11.4688V10.8889C7.82292 10.6244 3.92188 10.1111 0.53125 9.33333L1.44271 6.22222C6.20052 7.31111 11.7786 7.77778 16.9375 7.77778Z" fill="black"/>
</svg>
